Coordinates
nRows=12
nColumns=24

# SIMM Motion File Header:
name Coordinates
datacolumns 24
datarows 12
otherdata 1
range 0.25167000000000000000 0.26267000000000001000

Units are S.I. units (second, meters, Newtons, ...)
Angles are in degrees.

endheader
time	pelvis_tx	pelvis_ty	pelvis_tz	pelvis_tilt	pelvis_list	pelvis_rotation	hip_flexion_r	hip_adduction_r	hip_rotation_r	knee_angle_r	ankle_angle_r	subtalar_angle_r	mtp_angle_r	hip_flexion_l	hip_adduction_l	hip_rotation_l	knee_angle_l	ankle_angle_l	subtalar_angle_l	mtp_angle_l	lumbar_extension	lumbar_bending	lumbar_rotation
      0.25167000000000000000	      0.75990651746878468000	      0.88637194028668909000	     -0.20587421120892438000	      3.24314431049137040000	     -2.99690710563148380000	     -1.12458631570172040000	     10.02403308918804500000	      6.31974447881777120000	      2.67199114196804730000	    -15.47111769964634600000	      3.80910916087505670000	      0.00000000000000000000	      0.00000000000000000000	      1.12951820345701550000	    -10.22955839117498500000	    -10.98680353881696400000	    -54.59148515293836100000	     -9.76762516018310120000	      0.00000000000000000000	      0.00000000000000000000	     -9.80045004774977710000	      5.24706568728789160000	     -0.46874075989778147000
      0.25267000000000001000	      0.76056604389959137000	      0.88644279790633607000	     -0.20569017360702047000	      3.25405403306459730000	     -2.99946876845198230000	     -1.12283628501739520000	      9.95720049377806230000	      6.33319809992895430000	      2.66673079442887720000	    -15.45855987903079400000	      3.85028267099710500000	      0.00000000000000000429	     -0.00000000000000001043	      1.23310354757400060000	    -10.25409893076061600000	    -10.95132533189595500000	    -54.76716268036831500000	     -9.69663976306596890000	     -0.00000000000000000070	      0.00000000000000000027	     -9.82111079262214130000	      5.23725005096229350000	     -0.42772814965081529000
      0.25367000000000001000	      0.76122484595502427000	      0.88651346741700632000	     -0.20550640008700788000	      3.26488113667705630000	     -3.00193085952007750000	     -1.12114763977052640000	      9.89047654798567950000	      6.34650861934150080000	      2.66154251255979580000	    -15.44596311227146600000	      3.89129083293714210000	      0.00000000000000001861	     -0.00000000000000001847	      1.33665110746964120000	    -10.27833784749716500000	    -10.91542591725704600000	    -54.94201318156110900000	     -9.62539454195207970000	     -0.00000000000000000208	      0.00000000000000000135	     -9.84159658499851810000	      5.22726209292920800000	     -0.38669041324766296000
      0.25467000000000001000	      0.76188294212638752000	      0.88658396630864211000	     -0.20532287624016243000	      3.27562622623422060000	     -3.00428588139565720000	     -1.11952779508239120000	      9.82385707054320000000	      6.35966927755228180000	      2.65644072809860270000	    -15.43332795144795700000	      3.93224567869320070000	      0.00000000000000004253	      0.00000000000000001306	      1.44014448901570490000	    -10.30225531409767500000	    -10.87908308739179300000	    -55.11597404732575000000	     -9.55387026252668470000	     -0.00000000000000000278	      0.00000000000000000252	     -9.86190409866427940000	      5.21708971080808400000	     -0.34562263494862855000
      0.25567000000000001000	      0.76254034746749755000	      0.88665430594158523000	     -0.20513959150412941000	      3.28628246729046580000	     -3.00652539163817420000	     -1.11798153951403380000	      9.75734740558297810000	      6.37267012492423390000	      2.65143077482539360000	    -15.42065222177953000000	      3.97314386387639960000	      0.00000000000000008014	      0.00000000000000003003	      1.54357710289519300000	    -10.32582784058710200000	    -10.84226312025909800000	    -55.28897636880220300000	     -9.48204538052144840000	     -0.00000000000000000435	      0.00000000000000000374	     -9.88202132430190790000	      5.20672021412589280000	     -0.30452334152368632000
      0.25667000000000001000	      0.76319707660430480000	      0.88672449741424675000	     -0.20495653578977319000	      3.29684300269405650000	     -3.00864112592443920000	     -1.11651345463469380000	      9.69095299844204480000	      6.38550133349467950000	      2.64651747276540620000	    -15.40793371805068200000	      4.01398098873383450000	      0.00000000000000012703	      0.00000000000000000510	      1.64694272012910690000	    -10.34903228593503700000	    -10.80493307882504300000	    -55.46095216791508200000	     -9.40989870539375770000	     -0.00000000000000000559	      0.00000000000000000468	     -9.90193633629466060000	      5.19614127547353280000	     -0.26339137981923172000
      0.25767000000000001000	      0.76385314373585056000	      0.88679455158060316000	     -0.20477369947687879000	      3.30730103184990480000	     -3.01062502222241560000	     -1.11512792796218570000	      9.62467929509364950000	      6.39815324052154470000	      2.64170519062321980000	    -15.39517022954078100000	      4.05475267622727740000	      0.00000000000000015944	     -0.00000000000000003249	      1.75023538697321030000	    -10.37184593806710500000	    -10.76706097885629500000	    -55.63183453798070100000	     -9.33740946276763850000	     -0.00000000000000000696	      0.00000000000000000552	     -9.92163739475408770000	      5.18534096487603600000	     -0.22222589292359807000
      0.25867000000000001000	      0.76450856260083722000	      0.88686447901366050000	     -0.20459107345906116000	      3.31764981495653590000	     -3.01246923381618090000	     -1.11382914034080690000	      9.55853173599652270000	      6.41061636289439460000	      2.63699781761521690000	    -15.38235954143380900000	      4.09545457829616580000	      0.00000000000000019175	     -0.00000000000000006884	      1.85344943684798550000	    -10.39424654554146200000	    -10.72861585158208400000	    -55.80155771685901600000	     -9.26455732229403670000	     -0.00000000000000000868	      0.00000000000000000803	     -9.94111296108792960000	      5.17430777719661710000	     -0.18102632897808907000
      0.25967000000000001000	      0.76516334644428619000	      0.88693428997050350000	     -0.20440864918875171000	      3.32788267642788020000	     -3.01416614196154330000	     -1.11262105352528630000	      9.49251575133405190000	      6.42288141032793010000	      2.63239873183260010000	    -15.36949943611234600000	      4.13608230940435110000	      0.00000000000000022686	     -0.00000000000000009386	      1.95657950292399920000	    -10.41621234795164800000	    -10.68956780375608200000	    -55.97005715758219700000	     -9.19132242447738260000	     -0.00000000000000001088	      0.00000000000000001086	     -9.96035171246396800000	      5.16303065896899850000	     -0.13979245161024709000
      0.26067000000000001000	      0.76581750798753467000	      0.88700399436619004000	     -0.20422641871822528000	      3.33799300814844550000	     -3.01570836631685110000	     -1.11150739909086260000	      9.42663675677782110000	      6.43493929745515910000	      2.62791077718833940000	    -15.35658769403738500000	      4.17663144956119140000	      0.00000000000000026558	     -0.00000000000000009603	      2.05962052935860780000	    -10.43772210237483300000	    -10.64988807029742900000	    -56.13726959132629400000	     -9.11768540493887690000	     -0.00000000000000001337	      0.00000000000000001520	     -9.97934255502972080000	      5.15149903149181300000	     -0.09852435654834113000
      0.26167000000000001000	      0.76647105940164262000	      0.88707360175983863000	     -0.20404437473690817000	      3.34797427261256390000	     -3.01708877415471030000	     -1.11049166883971660000	      9.36090015019630250000	      6.44678115626428830000	      2.62353624876244540000	    -15.34362209445711000000	      4.21709761764506830000	      0.00000000000000029937	     -0.00000000000000009965	      2.16256778130054220000	    -10.45875510728145000000	    -10.60954906043207100000	    -56.30313308326731900000	     -9.04362741629385350000	     -0.00000000000000001617	      0.00000000000000001881	     -9.99807463602628490000	      5.13970281137099150000	     -0.05722249357744792200
      0.26267000000000001000	      0.76712401228154437000	      0.88714312134447049000	     -0.20386251060844360000	      3.35782000603216120000	     -3.01830048948349330000	     -1.10957710569601350000	      9.29531130887021280000	      6.45839834778279800000	      2.61927687548269490000	    -15.33060041623393700000	      4.25747648159855440000	      0.00000000000000034497	     -0.00000000000000007675	      2.26541685461802400000	    -10.47929122601510200000	    -10.56852440247267700000	    -56.46758708680347600000	     -8.96913014952107270000	     -0.00000000000000001908	      0.00000000000000002193	    -10.01653735568675300000	      5.12763243076392870000	     -0.01588768948646469500
